<?xml version="1.0" standalone="no"?>
<!DOCTYPE svg PUBLIC "-//W3C//DTD SVG 20010904//EN"
 "http://www.w3.org/TR/2001/REC-SVG-20010904/DTD/svg10.dtd">
<svg version="1.0" xmlns="http://www.w3.org/2000/svg"
 width="2048.000000pt" height="2048.000000pt" viewBox="0 0 2048.000000 2048.000000"
 preserveAspectRatio="xMidYMid meet">
<metadata>
Created by potrace 1.14, written by Peter Selinger 2001-2017
</metadata>
<g transform="translate(0.000000,2048.000000) scale(0.100000,-0.100000)"
fill="#000000" stroke="none">
<path d="M0 10240 l0 -10240 10240 0 10240 0 0 10240 0 10240 -10240 0 -10240
0 0 -10240z m10756 7390 c497 -29 949 -99 1379 -216 1728 -470 2922 -1639
3214 -3144 36 -187 71 -482 71 -607 l0 -43 -1069 0 -1070 0 -6 48 c-35 264
-103 487 -215 713 -109 217 -220 370 -395 544 -451 449 -1098 716 -1930 797
-170 16 -702 16 -870 0 -1122 -110 -1933 -577 -2286 -1317 -196 -411 -233
-912 -97 -1328 159 -487 567 -893 1212 -1202 287 -138 666 -274 1056 -379 113
-30 547 -147 965 -260 418 -112 843 -226 945 -251 1789 -452 3023 -1278 3587
-2399 189 -376 302 -774 355 -1246 19 -171 16 -630 -5 -812 -93 -795 -359
-1446 -831 -2038 -122 -153 -411 -444 -565 -569 -811 -658 -1853 -1043 -3151
-1165 -404 -38 -1053 -45 -1440 -16 -1816 138 -3167 778 -3989 1890 -463 625
-728 1380 -797 2263 l-6 87 1101 0 c874 0 1101 -3 1101 -12 0 -7 9 -72 19
-144 138 -938 740 -1619 1729 -1958 812 -278 1909 -301 2745 -56 325 95 656
242 892 397 613 403 964 961 1026 1633 36 386 -67 779 -283 1085 -80 114 -294
330 -420 423 -295 220 -692 414 -1198 587 -285 97 -459 146 -1560 440 -1115
298 -1199 322 -1460 407 -678 221 -1223 476 -1700 793 -241 161 -418 303 -613
495 -428 419 -701 865 -857 1397 -162 554 -184 1206 -60 1807 205 997 812
1857 1735 2458 801 522 1812 832 2920 897 207 12 618 12 821 1z"/>
</g>
</svg>
